<svg width="50" height="50" viewBox="0 0 50 50" fill="none" xmlns="http://www.w3.org/2000/svg">
<circle cx="25" cy="25" r="24.5" stroke="white"/>
<path d="M32 33C30.1926 33 28.3963 32.5556 26.6111 31.6667C24.8259 30.7778 23.2222 29.6222 21.8 28.2C20.3778 26.7778 19.2222 25.1741 18.3333 23.3889C17.4444 21.6037 17 19.8074 17 18C17 17.7185 17.0963 17.4815 17.2889 17.2889C17.4815 17.0963 17.7185 17 18 17H21.1111C21.3185 17 21.5 17.0704 21.6556 17.2111C21.8111 17.3519 21.9111 17.5407 21.9556 17.7778L22.5556 20.5778C22.5852 20.7852 22.5815 20.9741 22.5444 21.1444C22.5074 21.3148 22.4296 21.4593 22.3111 21.5778L20.0889 23.8222C20.9185 25.2 21.8481 26.4 22.8778 27.4222C23.9074 28.4444 25.0741 29.3111 26.3778 30.0222L28.4889 27.8444C28.637 27.6815 28.8074 27.5667 29 27.5C29.1926 27.4333 29.3852 27.4222 29.5778 27.4667L32.2222 28.0444C32.4444 28.0889 32.6296 28.2 32.7778 28.3778C32.9259 28.5556 33 28.763 33 29V32C33 32.2815 32.9037 32.5185 32.7111 32.7111C32.5185 32.9037 32.2815 33 32 33Z" fill="white"/>
</svg>
