<svg width="20" height="31" viewBox="0 0 20 31" fill="none" xmlns="http://www.w3.org/2000/svg">
<path d="M5.18768 4.29738C6.14569 2.55874 7.38546 1.13621 9.06479 0.120116C9.2902 -0.0153634 9.72976 -0.0492331 9.9439 0.0862458C11.6683 1.09105 12.9306 2.54745 13.8886 4.28609C11.8712 5.68604 7.31784 5.69733 5.18768 4.29738Z" fill="#ED6868"/>
<path d="M15.4327 11.2068C15.5341 11.2519 15.5905 11.2971 15.6694 11.3197C18.2729 12.1326 19.2422 14.2325 19.0844 16.7953C18.9942 18.4098 18.5659 19.9452 17.9009 21.4016C17.7882 21.6612 17.5177 21.9661 17.2811 22.0112C17.0895 22.0451 16.7626 21.7741 16.6048 21.5484C15.7144 20.3065 14.4747 19.6629 13.0095 19.6178C10.699 19.5275 8.38851 19.5275 6.07803 19.6178C4.57903 19.6742 3.29418 20.3403 2.42634 21.65C2.0544 22.2145 1.52468 22.2145 1.26546 21.6161C0.420159 19.6855 -0.154643 17.6985 0.0369578 15.5647C0.228559 13.5099 1.26546 12.11 3.20401 11.3874C3.33926 11.331 3.48578 11.2858 3.64357 11.2294C3.60976 9.2875 3.85771 7.41338 4.60157 5.57312C7.90388 6.89404 11.1724 6.90533 14.4747 5.57312C15.2185 7.41338 15.4665 9.2875 15.4327 11.2068ZM9.56066 8.32786C8.11802 8.31657 6.8557 9.56975 6.84443 11.0149C6.83316 12.4487 8.10675 13.7131 9.54939 13.7019C10.9808 13.6906 12.2093 12.4825 12.2318 11.0487C12.2543 9.61491 11.0033 8.33915 9.56066 8.32786Z" fill="#ED6868"/>
<path d="M6.15677 24.2354C6.15677 23.5241 6.16804 22.8016 6.15677 22.0903C6.15677 21.6726 6.3371 21.3564 6.75411 21.3564C7.17113 21.3564 7.374 21.65 7.374 22.079C7.374 23.5467 7.374 25.0144 7.374 26.4821C7.374 26.8885 7.19367 27.1933 6.74284 27.182C6.28075 27.1708 6.15677 26.8546 6.15677 26.4482C6.15677 25.7031 6.15677 24.9692 6.15677 24.2354Z" fill="#ED6868"/>
<path d="M12.919 24.3031C12.919 25.0143 12.919 25.7369 12.919 26.4481C12.919 26.8546 12.7838 27.1707 12.3217 27.1707C11.8708 27.1707 11.7018 26.8659 11.7018 26.4594C11.7018 24.9917 11.7018 23.5241 11.7018 22.0564C11.7018 21.6386 11.9159 21.3451 12.3329 21.3564C12.7274 21.3677 12.919 21.6499 12.919 22.0451C12.919 22.8015 12.919 23.5579 12.919 24.3031Z" fill="#ED6868"/>
<path d="M8.9407 27.0692C8.9407 26.3579 8.9407 25.6466 8.9407 24.9241C8.9407 24.5064 9.09849 24.2015 9.53805 24.2015C9.98888 24.2015 10.1354 24.5177 10.1354 24.9241C10.1354 26.3692 10.1354 27.8143 10.1354 29.2594C10.1354 29.6546 10.034 29.982 9.56059 30.0046C9.06468 30.0158 8.9407 29.6884 8.9407 29.2594C8.9407 28.5369 8.9407 27.803 8.9407 27.0692Z" fill="#ED6868"/>
</svg>
