<svg width="50" height="50" viewBox="0 0 50 50" fill="none" xmlns="http://www.w3.org/2000/svg">
<circle cx="25" cy="25" r="25" fill="#619AD3"/>
<path d="M23.8438 26.6641C21.0595 26.6641 18.3876 26.6641 15.7158 26.6641C14.6471 26.6641 13.9862 26.1154 14.0002 25.243C14.0143 24.3706 14.6471 23.8499 15.7439 23.8499C18.4158 23.8499 21.0876 23.8499 23.8438 23.8499C23.8438 23.5685 23.8438 23.3152 23.8438 23.076C23.8438 20.6136 23.8438 18.1512 23.8438 15.6887C23.8438 14.6475 24.3641 14.0143 25.2219 14.0002C26.0937 13.9862 26.6562 14.6334 26.6562 15.7028C26.6562 18.1371 26.6562 20.5855 26.6562 23.0197C26.6562 23.273 26.6562 23.5263 26.6562 23.8499C27.064 23.8499 27.4015 23.8499 27.7531 23.8499C30.1155 23.8499 32.492 23.8499 34.8545 23.8499C35.867 23.8499 36.5138 24.4128 36.4998 25.257C36.4998 26.1013 35.8529 26.6501 34.8264 26.6501C32.1405 26.6501 29.4405 26.6501 26.6562 26.6501C26.6562 26.9315 26.6562 27.1848 26.6562 27.424C26.6562 29.8864 26.6562 32.3488 26.6562 34.8113C26.6562 35.8384 26.1219 36.4857 25.2781 36.4998C24.4063 36.5139 23.8438 35.8525 23.8438 34.7972C23.8438 32.3629 23.8438 29.9145 23.8438 27.4803C23.8438 27.2411 23.8438 26.9878 23.8438 26.6641Z" fill="white"/>
</svg>
