<svg width="30" height="26" viewBox="0 0 30 26" fill="none" xmlns="http://www.w3.org/2000/svg">
<path d="M29.9979 8.90344C30.0177 9.43009 29.7003 9.68845 29.3035 9.90706C26.4267 11.5268 23.55 13.1564 20.6831 14.786C19.0464 15.7101 17.3997 16.6343 15.7728 17.5783C15.2471 17.8863 14.7908 17.8962 14.2452 17.5882C9.73163 15.0146 5.19825 12.4509 0.674799 9.88718C0.287925 9.66857 0.0101687 9.41022 0.000248876 8.93325C-0.00967098 8.42647 0.278005 8.15818 0.674799 7.92963C5.20817 5.36594 9.73162 2.81218 14.2551 0.228607C14.7709 -0.0694968 15.2173 -0.0794312 15.7331 0.218673C20.2665 2.80224 24.8098 5.37588 29.3531 7.93957C29.74 8.16812 30.0276 8.42647 29.9979 8.90344ZM26.9823 8.93325C26.8434 8.83388 26.7938 8.79414 26.7343 8.76433C22.925 6.60804 19.1257 4.44181 15.3066 2.3054C15.1379 2.21597 14.8205 2.24578 14.642 2.34515C10.8823 4.45175 7.13262 6.57822 3.38292 8.7047C3.2738 8.76432 3.1746 8.84382 3.04564 8.93325C3.15476 9.01275 3.21428 9.06243 3.28372 9.10217C7.09294 11.2585 10.8922 13.4247 14.7114 15.5611C14.8701 15.6505 15.1875 15.6108 15.376 15.5015C18.2032 13.9215 21.0105 12.3217 23.8277 10.7219C24.8693 10.1257 25.8911 9.54933 26.9823 8.93325Z" fill="#FFBA31"/>
<path d="M0.0201806 12.888C0.0301005 12.1029 0.813769 11.6757 1.54784 12.0831C2.81758 12.7886 4.0774 13.504 5.34714 14.2195C8.43222 15.9684 11.5272 17.7073 14.6024 19.4761C14.9099 19.6549 15.1182 19.635 15.4158 19.4661C19.6714 17.0415 23.9369 14.6269 28.2124 12.2123C28.4902 12.0533 28.8274 11.9241 29.1349 11.934C29.5615 11.944 29.8789 12.2222 29.9682 12.6594C30.0674 13.1463 29.8988 13.5338 29.4524 13.7922C28.391 14.3983 27.3295 14.9946 26.2681 15.6007C22.7962 17.5682 19.3143 19.5357 15.8523 21.523C15.2472 21.8708 14.7512 21.8509 14.156 21.5131C9.70196 18.9593 5.2281 16.4354 0.76417 13.9114C0.337616 13.673 0.000340926 13.4146 0.0201806 12.888Z" fill="#FFBA31"/>
<path d="M29.9882 16.8429C30.008 17.3497 29.7104 17.6279 29.3136 17.8465C26.4369 19.4662 23.57 21.0959 20.6933 22.7255C19.0267 23.6695 17.3602 24.6036 15.7036 25.5575C15.2274 25.8357 14.8009 25.8357 14.3148 25.5575C9.7715 22.964 5.21829 20.3904 0.665073 17.8167C0.139321 17.5186 -0.0689963 17.141 0.0500419 16.6442C0.15916 16.1871 0.476596 15.9089 0.922989 15.8989C1.21066 15.8989 1.5281 16.0281 1.79594 16.1772C6.06147 18.5819 10.327 20.9965 14.5925 23.431C14.91 23.6099 15.1282 23.6099 15.4457 23.431C19.7013 21.0064 23.9668 18.5918 28.2323 16.1672C28.5795 15.9685 28.9267 15.7698 29.3434 15.9387C29.7402 16.1175 29.9683 16.4057 29.9882 16.8429Z" fill="#FFBA31"/>
</svg>
