<svg width="50" height="50" viewBox="0 0 50 50" fill="none" xmlns="http://www.w3.org/2000/svg">
<circle cx="25" cy="25" r="24.5" stroke="white"/>
<path d="M16.5 33C16.1 33 15.75 32.85 15.45 32.55C15.15 32.25 15 31.9 15 31.5V18.5C15 18.1 15.15 17.75 15.45 17.45C15.75 17.15 16.1 17 16.5 17H33.5C33.9 17 34.25 17.15 34.55 17.45C34.85 17.75 35 18.1 35 18.5V31.5C35 31.9 34.85 32.25 34.55 32.55C34.25 32.85 33.9 33 33.5 33H16.5ZM25 25.45L33.5 19.875V18.5L25 23.95L16.5 18.5V19.875L25 25.45Z" fill="white"/>
</svg>
