<svg width="50" height="50" viewBox="0 0 50 50" fill="none" xmlns="http://www.w3.org/2000/svg">
<path d="M25.0003 25.3789C25.5732 25.3789 26.0637 25.1638 26.4717 24.7335C26.8797 24.3033 27.0837 23.7861 27.0837 23.1819C27.0837 22.5778 26.8797 22.0606 26.4717 21.6303C26.0637 21.2001 25.5732 20.985 25.0003 20.985C24.4274 20.985 23.937 21.2001 23.529 21.6303C23.121 22.0606 22.917 22.5778 22.917 23.1819C22.917 23.7861 23.121 24.3033 23.529 24.7335C23.937 25.1638 24.4274 25.3789 25.0003 25.3789ZM25.0003 36.3637C22.2052 33.8555 20.1175 31.5258 18.7373 29.3746C17.3571 27.2234 16.667 25.2324 16.667 23.4016C16.667 20.6554 17.5047 18.4676 19.18 16.8382C20.8554 15.2088 22.7955 14.394 25.0003 14.394C27.2052 14.394 29.1453 15.2088 30.8206 16.8382C32.496 18.4676 33.3337 20.6554 33.3337 23.4016C33.3337 25.2324 32.6436 27.2234 31.2633 29.3746C29.8831 31.5258 27.7955 33.8555 25.0003 36.3637Z" fill="white"/>
<circle cx="25" cy="25" r="24.5" stroke="white"/>
</svg>
