<svg width="30" height="30" viewBox="0 0 30 30" fill="none" xmlns="http://www.w3.org/2000/svg">
<path d="M7.09493 28.1956C7.68462 28.1956 8.21814 28.1956 8.81719 28.1956C8.81719 28.0081 8.81719 27.8299 8.81719 27.6518C8.81719 25.1953 8.81719 22.7481 8.81719 20.2916C8.81719 19.3915 9.09799 19.1102 9.97783 19.1102C10.9887 19.1102 12.009 19.1102 13.0199 19.1102C13.8061 19.1102 14.115 19.4196 14.115 20.2259C14.115 22.7293 14.115 25.2234 14.115 27.7268C14.115 27.8674 14.115 28.0081 14.115 28.1862C14.6859 28.1862 15.2382 28.1862 15.8372 28.1862C15.8372 27.9893 15.8372 27.8112 15.8372 27.6237C15.8372 24.1076 15.8372 20.5916 15.8372 17.0756C15.8372 16.1755 16.1555 15.8567 17.0447 15.8567C18.0088 15.8567 18.9822 15.8567 19.9463 15.8567C20.8074 15.8567 21.135 16.1849 21.135 17.0475C21.135 20.5635 21.135 24.0795 21.135 27.5955C21.135 27.783 21.135 27.9706 21.135 28.1862C21.706 28.1862 22.2582 28.1862 22.8573 28.1862C22.8573 27.9893 22.8573 27.8018 22.8573 27.6237C22.8573 22.1855 22.8573 16.7474 22.8573 11.3093C22.8573 10.2873 23.11 10.0248 24.1209 10.0248C25.0569 10.0248 25.9929 10.0248 26.9289 10.0248C27.8837 10.0248 28.1551 10.2967 28.1551 11.2437C28.1551 16.7005 28.1551 22.148 28.1551 27.6049C28.1551 27.7924 28.1551 27.9706 28.1551 28.2237C28.464 28.2237 28.7354 28.2143 29.0162 28.2237C29.5685 28.2519 29.9616 28.6363 29.9522 29.1332C29.9429 29.6395 29.5591 29.9958 28.9881 29.9958C28.0802 30.0052 27.1816 29.9958 26.2737 29.9958C18.0181 29.9958 9.77191 29.9958 1.51633 29.9958C1.40401 29.9958 1.30105 29.9958 1.18873 29.9958C0.421201 29.9958 0 29.6864 0 29.1145C0 28.5519 0.439921 28.2143 1.17937 28.2143C1.36657 28.2143 1.54441 28.2143 1.79713 28.2143C1.79713 28.0081 1.79713 27.8487 1.79713 27.6799C1.79713 25.9172 1.79713 24.1451 1.79713 22.3824C1.79713 21.5198 2.12473 21.1823 2.9765 21.1823C3.97803 21.1823 4.9702 21.1823 5.97172 21.1823C6.73925 21.1823 7.09493 21.5292 7.09493 22.298C7.09493 24.0795 7.09493 25.861 7.09493 27.6424C7.09493 27.8018 7.09493 27.9799 7.09493 28.1956Z" fill="#408EE9"/>
<path d="M25.9459 2.23325C24.7665 2.54266 23.7088 2.82394 22.6418 3.1146C22.0895 3.26461 21.5935 3.04896 21.4531 2.59891C21.2846 2.06448 21.5467 1.59568 22.1551 1.43628C23.8773 0.967479 25.6089 0.50805 27.3405 0.0486228C27.9396 -0.11077 28.3421 0.123632 28.5106 0.723701C28.9786 2.4489 29.4372 4.18347 29.8958 5.91804C30.0456 6.49936 29.821 6.94941 29.3436 7.09005C28.8662 7.23069 28.3421 6.88377 28.1923 6.32121C27.9677 5.47736 27.7524 4.63352 27.5277 3.78967C27.4903 3.65841 27.4435 3.53652 27.378 3.33025C27.1814 3.63966 27.0223 3.89281 26.8632 4.13659C23.8024 8.76836 19.7308 12.2844 14.9197 14.9753C11.6343 16.8224 8.12432 18.0788 4.38965 18.6226C3.25709 18.7914 2.09644 18.8101 0.945147 18.857C0.392903 18.8851 0.0278599 18.5195 0.00913976 18.0319C-0.00958038 17.5256 0.374185 17.1318 0.935789 17.1318C11.3255 17.0474 21.1723 9.88412 25.4685 3.05834C25.6089 2.80519 25.7493 2.57079 25.9459 2.23325Z" fill="#408EE9"/>
</svg>
